<svg viewBox="0 0 64 64" xml:space="preserve" xmlns="http://www.w3.org/2000/svg"><path d="M62.368 9.597a3.489 3.489 0 0 1 .072 4.935L15.435 62.94a3.488 3.488 0 0 1-4.935.073l-8.868-8.611a3.489 3.489 0 0 1-.072-4.935L48.565 1.059a3.49 3.49 0 0 1 4.936-.072l8.867 8.61z" fill="#fc4e0f" class="fill-000000"></path><path d="M63.014 53.501a3.489 3.489 0 0 0-.073-4.936L14.532 1.56a3.488 3.488 0 0 0-4.935.073L.986 10.5a3.49 3.49 0 0 0 .072 4.936l48.41 47.004a3.49 3.49 0 0 0 4.935-.072l8.611-8.867z" fill="#fc4e0f" class="fill-000000"></path></svg>