<svg viewBox="0 0 96 96" xml:space="preserve" xmlns="http://www.w3.org/2000/svg"><path d="M84 20c2.206 0 4 1.794 4 4v48c0 2.206-1.794 4-4 4H35.593L10.704 48l24.889-28H84m0-8H32L0 48l32 36h52c6.627 0 12-5.373 12-12V24c0-6.627-5.373-12-12-12z" fill="#fc4e0f" class="fill-000000"></path><path d="m65.657 48 8.485-8.485a4 4 0 0 0-5.657-5.657L60 42.343l-8.485-8.485a4 4 0 0 0-5.657 5.657L54.343 48l-8.485 8.485a4 4 0 0 0 5.657 5.657L60 53.657l8.485 8.485a4 4 0 0 0 5.657-5.657L65.657 48z" fill="#fc4e0f" class="fill-000000"></path></svg>